<svg xmlns="http://www.w3.org/2000/svg" viewBox="0 0 1160 260" role="img" aria-labelledby="title desc">
  <title id="title">WHY, PRACTICED — refined brand signature</title>
  <desc id="desc">A refined serif wordmark paired with a distinct W/P monogram, fine antique-bronze orbital line, and the phrase Reflect, Learn, Grow.</desc>
  <rect width="1160" height="260" fill="#F6F3EC"/>
  <g transform="translate(26 35)">
    <path d="M24 157A72 72 0 1 1 111 52" fill="none" stroke="#9B7658" stroke-width="1.8" stroke-linecap="round"/>
    <path d="M2 57L16 109L30 57L44 109L58 57" fill="none" stroke="#191919" stroke-width="6.5" stroke-linecap="square" stroke-linejoin="miter"/>
    <path d="M72 144V57H92.5C113 57 125 68 125 85C125 102 113 113 92.5 113H86V144Z" fill="#9B7658"/>
    <path d="M86 69V100H92C103.5 100 110 95 110 85C110 75 103.5 69 92 69Z" fill="#F6F3EC"/>
  </g>
  <path d="M201 55V205" stroke="#9B7658" stroke-width="1"/>
  <text x="254" y="124" font-family="Georgia, 'Times New Roman', serif" font-size="63" letter-spacing="2.3" fill="#191919">WHY, PRACTICED</text>
  <path d="M258 150H1080" stroke="#9B7658" stroke-width="1"/>
  <text x="260" y="188" font-family="Arial, Helvetica, sans-serif" font-size="14" letter-spacing="8" fill="#514B45">REFLECT</text>
  <circle cx="430" cy="183" r="2.1" fill="#9B7658"/>
  <text x="454" y="188" font-family="Arial, Helvetica, sans-serif" font-size="14" letter-spacing="8" fill="#514B45">LEARN</text>
  <circle cx="585" cy="183" r="2.1" fill="#9B7658"/>
  <text x="609" y="188" font-family="Arial, Helvetica, sans-serif" font-size="14" letter-spacing="8" fill="#514B45">GROW</text>
  <text x="260" y="222" font-family="Arial, Helvetica, sans-serif" font-size="10" letter-spacing="3" fill="#77716A">AN INDEPENDENT EDITORIAL STUDY</text>
</svg>